<?xml version="1.0" encoding="UTF-8"?>
<svg width="42px" height="48px" viewBox="0 0 42 48" version="1.1" xmlns="http://www.w3.org/2000/svg" xmlns:xlink="http://www.w3.org/1999/xlink">
    <title>logo</title>
    <g id="Page-1" stroke="none" stroke-width="1" fill="none" fill-rule="evenodd">
        <g id="Artboard" transform="translate(-210.000000, -71.000000)" fill="#081D2D">
            <g id="Group" transform="translate(210.000000, 71.000000)">
                <path d="M2.68484,0.750502 C4.35772,-0.250168 6.36104,-0.250168 8.03388,0.750502 L16.8732,6.00932 C16.88354,6.00932 16.8887,6.01464 16.89388,6.01998 C16.89904,6.0253 16.9042,6.03062 16.91454,6.03062 L39.0748,19.23094 C40.7478,20.2104 41.7392,21.9988 41.7392,23.9999995 C41.7392,25.9802 40.7478,27.7686 39.0748,28.7692 L30.2354,34.0282 C30.2252,34.0388 30.2148,34.0442 30.2046,34.0494 C30.1942,34.0548 30.1838,34.0602 30.1736,34.0708 L8.03388,47.2494 C6.36104,48.2502 4.35772,48.2502 2.68484,47.2494 C0.991328,46.2488 0,44.4818 0,42.4804 L0,31.9416 L0,31.9202 L0,31.899 L0,5.51966 C0,3.53962 0.991328,1.75117 2.68484,0.750502 Z M7.12518,2.3899 C6.00992,1.72988 4.68814,1.72988 3.59358,2.3899 C2.47832,3.04992 1.817436,4.22092 1.838086,5.51966 L1.838086,28.024 L2.0033,27.726 L6.83604,6.00932 C7.1045,4.85962 7.80672,3.92284 8.79802,3.39058 L7.12518,2.3899 Z M1.900046,31.6434 C1.755474,31.899 1.85874,32.1332 1.900046,32.2184 L1.906554,32.2274 C1.971854,32.3176 2.11626,32.5172 2.3957,32.5378 L2.80876,32.5378 L25.3822,32.5378 L29.017,32.5378 C29.3268,32.5378 29.4714,32.3248 29.5126,32.2396 C29.554,32.1758 29.5952,32.0694 29.5952,31.9416 C29.5952,31.8352 29.5746,31.75 29.5126,31.6434 L29.3062,31.2816 L18.00912,11.11914 L16.1917,7.88292 C16.04714,7.60616 15.7993,7.58486 15.69604,7.58486 C15.59276,7.58486 15.34492,7.62742 15.20036,7.88292 L14.99382,8.24486 L5.98926,24.3408 L1.900046,31.6434 Z M31.0822,30.7068 L22.5528,15.48376 L34.015,26.4698 C34.5518,26.9808 34.7792,27.7472 34.6138,28.4924 C34.4486,29.2376 33.9324,29.8124 33.23,30.0466 L31.0822,30.7068 Z M35.2746,25.086 C36.101,25.895 36.5346,27.002 36.4932,28.1518 L38.166,27.1724 C39.2608,26.5124 39.9216,25.3414 39.9216,24.0214 C39.9216,22.7014 39.2608,21.5304 38.166,20.8704 L19.2896,9.6075 L19.4548,9.92684 L35.2746,25.086 Z M13.63074,6.92486 L5.10122,22.169 L8.59152,6.43516 C8.75672,5.68998 9.27304,5.11512 9.97524,4.90222 C10.67742,4.66802 11.42092,4.85962 11.9579,5.37062 L13.63074,6.92486 Z M19.43416,34.3902 L2.37506,34.3902 L1.85874,36.6468 C1.693518,37.3922 1.920696,38.1584 2.45766,38.6694 C3.01528,39.1804 3.75878,39.3722 4.46098,39.1378 L19.43416,34.3902 Z M1.817436,40.5004 C2.76746,41.1178 3.90334,41.2882 4.99796,40.9262 L25.6506,34.3902 L26.0018,34.3902 L7.1045,45.6314 C6.00992,46.2914 4.68814,46.2914 3.5729,45.6314 C2.47832,44.9714 1.817436,43.8004 1.817436,42.4804 L1.817436,40.5004 Z" id="Shape"></path>
            </g>
        </g>
    </g>
</svg>